<svg xmlns="http://www.w3.org/2000/svg" version="1.1" xmlns:xlink="http://www.w3.org/1999/xlink" xmlns:svgjs="http://svgjs.dev/svgjs" width="1920" height="100" preserveAspectRatio="none" viewBox="0 0 1920 100"><g mask="url(&quot;#SvgjsMask1022&quot;)" fill="none"><path d="M-39.32 65.67L-39.32 65.67" stroke="rgba(142, 132, 163, 1)" stroke-width="1.5"></path><path d="M-39.32 65.67L-86.22 193.72" stroke="rgba(142, 132, 163, 1)" stroke-width="1.5"></path><path d="M-39.32 65.67L86.48 187.64" stroke="rgba(142, 132, 163, 1)" stroke-width="1.5"></path><path d="M-39.32 65.67L229.66 258.75" stroke="rgba(142, 132, 163, 1)" stroke-width="1.5"></path><path d="M-86.22 193.72L-86.22 193.72" stroke="rgba(142, 132, 163, 1)" stroke-width="1.5"></path><path d="M-86.22 193.72L86.48 187.64" stroke="rgba(142, 132, 163, 1)" stroke-width="1.5"></path><path d="M-86.22 193.72L229.66 258.75" stroke="rgba(142, 132, 163, 1)" stroke-width="1.5"></path><path d="M-86.22 193.72L356.58 215.45" stroke="rgba(142, 132, 163, 1)" stroke-width="1.5"></path><path d="M-86.22 193.72L489.32 240.8" stroke="rgba(142, 132, 163, 1)" stroke-width="1.5"></path><path d="M86.48 187.64L86.48 187.64" stroke="rgba(142, 132, 163, 1)" stroke-width="1.5"></path><path d="M86.48 187.64L229.66 258.75" stroke="rgba(142, 132, 163, 1)" stroke-width="1.5"></path><path d="M229.66 258.75L229.66 258.75" stroke="rgba(142, 132, 163, 1)" stroke-width="1.5"></path><path d="M229.66 258.75L356.58 215.45" stroke="rgba(142, 132, 163, 1)" stroke-width="1.5"></path><path d="M229.66 258.75L489.32 240.8" stroke="rgba(142, 132, 163, 1)" stroke-width="1.5"></path><path d="M356.58 215.45L356.58 215.45" stroke="rgba(142, 132, 163, 1)" stroke-width="1.5"></path><path d="M356.58 215.45L489.32 240.8" stroke="rgba(142, 132, 163, 1)" stroke-width="1.5"></path><path d="M356.58 215.45L544.83 112.07" stroke="rgba(142, 132, 163, 1)" stroke-width="1.5"></path><path d="M356.58 215.45L86.48 187.64" stroke="rgba(142, 132, 163, 1)" stroke-width="1.5"></path><path d="M544.83 112.07L544.83 112.07" stroke="rgba(142, 132, 163, 1)" stroke-width="1.5"></path><path d="M544.83 112.07L489.32 240.8" stroke="rgba(142, 132, 163, 1)" stroke-width="1.5"></path><path d="M544.83 112.07L678.5 209.51" stroke="rgba(142, 132, 163, 1)" stroke-width="1.5"></path><path d="M544.83 112.07L822.73 59.32" stroke="rgba(142, 132, 163, 1)" stroke-width="1.5"></path><path d="M544.83 112.07L229.66 258.75" stroke="rgba(142, 132, 163, 1)" stroke-width="1.5"></path><path d="M544.83 112.07L952.03 214.14" stroke="rgba(142, 132, 163, 1)" stroke-width="1.5"></path><path d="M489.32 240.8L489.32 240.8" stroke="rgba(142, 132, 163, 1)" stroke-width="1.5"></path><path d="M678.5 209.51L678.5 209.51" stroke="rgba(142, 132, 163, 1)" stroke-width="1.5"></path><path d="M678.5 209.51L489.32 240.8" stroke="rgba(142, 132, 163, 1)" stroke-width="1.5"></path><path d="M678.5 209.51L822.73 59.32" stroke="rgba(142, 132, 163, 1)" stroke-width="1.5"></path><path d="M822.73 59.32L822.73 59.32" stroke="rgba(142, 132, 163, 1)" stroke-width="1.5"></path><path d="M822.73 59.32L979.21 42.53" stroke="rgba(142, 132, 163, 1)" stroke-width="1.5"></path><path d="M822.73 59.32L952.03 214.14" stroke="rgba(142, 132, 163, 1)" stroke-width="1.5"></path><path d="M979.21 42.53L979.21 42.53" stroke="rgba(142, 132, 163, 1)" stroke-width="1.5"></path><path d="M979.21 42.53L1140.51 40.58" stroke="rgba(142, 132, 163, 1)" stroke-width="1.5"></path><path d="M979.21 42.53L952.03 214.14" stroke="rgba(142, 132, 163, 1)" stroke-width="1.5"></path><path d="M979.21 42.53L1110.09 254.79" stroke="rgba(142, 132, 163, 1)" stroke-width="1.5"></path><path d="M952.03 214.14L952.03 214.14" stroke="rgba(142, 132, 163, 1)" stroke-width="1.5"></path><path d="M952.03 214.14L1110.09 254.79" stroke="rgba(142, 132, 163, 1)" stroke-width="1.5"></path><path d="M952.03 214.14L1140.51 40.58" stroke="rgba(142, 132, 163, 1)" stroke-width="1.5"></path><path d="M952.03 214.14L678.5 209.51" stroke="rgba(142, 132, 163, 1)" stroke-width="1.5"></path><path d="M952.03 214.14L1278.85 217.14" stroke="rgba(142, 132, 163, 1)" stroke-width="1.5"></path><path d="M1140.51 40.58L1140.51 40.58" stroke="rgba(142, 132, 163, 1)" stroke-width="1.5"></path><path d="M1140.51 40.58L1261.33 47.36" stroke="rgba(142, 132, 163, 1)" stroke-width="1.5"></path><path d="M1140.51 40.58L1285.81 -70.06" stroke="rgba(142, 132, 163, 1)" stroke-width="1.5"></path><path d="M1140.51 40.58L1110.09 254.79" stroke="rgba(142, 132, 163, 1)" stroke-width="1.5"></path><path d="M1140.51 40.58L1278.85 217.14" stroke="rgba(142, 132, 163, 1)" stroke-width="1.5"></path><path d="M1110.09 254.79L1110.09 254.79" stroke="rgba(142, 132, 163, 1)" stroke-width="1.5"></path><path d="M1110.09 254.79L1278.85 217.14" stroke="rgba(142, 132, 163, 1)" stroke-width="1.5"></path><path d="M1285.81 -70.06L1285.81 -70.06" stroke="rgba(142, 132, 163, 1)" stroke-width="1.5"></path><path d="M1285.81 -70.06L1398.48 -64.3" stroke="rgba(142, 132, 163, 1)" stroke-width="1.5"></path><path d="M1285.81 -70.06L1261.33 47.36" stroke="rgba(142, 132, 163, 1)" stroke-width="1.5"></path><path d="M1285.81 -70.06L1396.82 54.36" stroke="rgba(142, 132, 163, 1)" stroke-width="1.5"></path><path d="M1285.81 -70.06L1543.28 -96.28" stroke="rgba(142, 132, 163, 1)" stroke-width="1.5"></path><path d="M1261.33 47.36L1261.33 47.36" stroke="rgba(142, 132, 163, 1)" stroke-width="1.5"></path><path d="M1261.33 47.36L1396.82 54.36" stroke="rgba(142, 132, 163, 1)" stroke-width="1.5"></path><path d="M1261.33 47.36L1278.85 217.14" stroke="rgba(142, 132, 163, 1)" stroke-width="1.5"></path><path d="M1278.85 217.14L1278.85 217.14" stroke="rgba(142, 132, 163, 1)" stroke-width="1.5"></path><path d="M1278.85 217.14L1408.92 230.71" stroke="rgba(142, 132, 163, 1)" stroke-width="1.5"></path><path d="M1398.48 -64.3L1398.48 -64.3" stroke="rgba(142, 132, 163, 1)" stroke-width="1.5"></path><path d="M1398.48 -64.3L1396.82 54.36" stroke="rgba(142, 132, 163, 1)" stroke-width="1.5"></path><path d="M1398.48 -64.3L1543.28 -96.28" stroke="rgba(142, 132, 163, 1)" stroke-width="1.5"></path><path d="M1398.48 -64.3L1261.33 47.36" stroke="rgba(142, 132, 163, 1)" stroke-width="1.5"></path><path d="M1396.82 54.36L1396.82 54.36" stroke="rgba(142, 132, 163, 1)" stroke-width="1.5"></path><path d="M1408.92 230.71L1408.92 230.71" stroke="rgba(142, 132, 163, 1)" stroke-width="1.5"></path><path d="M1408.92 230.71L1562.05 194.54" stroke="rgba(142, 132, 163, 1)" stroke-width="1.5"></path><path d="M1408.92 230.71L1396.82 54.36" stroke="rgba(142, 132, 163, 1)" stroke-width="1.5"></path><path d="M1408.92 230.71L1558.31 101.84" stroke="rgba(142, 132, 163, 1)" stroke-width="1.5"></path><path d="M1408.92 230.71L1261.33 47.36" stroke="rgba(142, 132, 163, 1)" stroke-width="1.5"></path><path d="M1543.28 -96.28L1543.28 -96.28" stroke="rgba(142, 132, 163, 1)" stroke-width="1.5"></path><path d="M1543.28 -96.28L1558.31 101.84" stroke="rgba(142, 132, 163, 1)" stroke-width="1.5"></path><path d="M1543.28 -96.28L1396.82 54.36" stroke="rgba(142, 132, 163, 1)" stroke-width="1.5"></path><path d="M1558.31 101.84L1558.31 101.84" stroke="rgba(142, 132, 163, 1)" stroke-width="1.5"></path><path d="M1558.31 101.84L1562.05 194.54" stroke="rgba(142, 132, 163, 1)" stroke-width="1.5"></path><path d="M1558.31 101.84L1396.82 54.36" stroke="rgba(142, 132, 163, 1)" stroke-width="1.5"></path><path d="M1562.05 194.54L1562.05 194.54" stroke="rgba(142, 132, 163, 1)" stroke-width="1.5"></path><path d="M1562.05 194.54L1747.87 244.16" stroke="rgba(142, 132, 163, 1)" stroke-width="1.5"></path><path d="M1562.05 194.54L1396.82 54.36" stroke="rgba(142, 132, 163, 1)" stroke-width="1.5"></path><path d="M1562.05 194.54L1755.75 72.9" stroke="rgba(142, 132, 163, 1)" stroke-width="1.5"></path><path d="M1755.75 72.9L1755.75 72.9" stroke="rgba(142, 132, 163, 1)" stroke-width="1.5"></path><path d="M1755.75 72.9L1871.25 61.9" stroke="rgba(142, 132, 163, 1)" stroke-width="1.5"></path><path d="M1755.75 72.9L1838.18 -38.79" stroke="rgba(142, 132, 163, 1)" stroke-width="1.5"></path><path d="M1755.75 72.9L1747.87 244.16" stroke="rgba(142, 132, 163, 1)" stroke-width="1.5"></path><path d="M1755.75 72.9L1558.31 101.84" stroke="rgba(142, 132, 163, 1)" stroke-width="1.5"></path><path d="M1747.87 244.16L1747.87 244.16" stroke="rgba(142, 132, 163, 1)" stroke-width="1.5"></path><path d="M1747.87 244.16L1871.25 61.9" stroke="rgba(142, 132, 163, 1)" stroke-width="1.5"></path><path d="M1747.87 244.16L1558.31 101.84" stroke="rgba(142, 132, 163, 1)" stroke-width="1.5"></path><path d="M1747.87 244.16L1838.18 -38.79" stroke="rgba(142, 132, 163, 1)" stroke-width="1.5"></path><path d="M1838.18 -38.79L1838.18 -38.79" stroke="rgba(142, 132, 163, 1)" stroke-width="1.5"></path><path d="M1838.18 -38.79L1871.25 61.9" stroke="rgba(142, 132, 163, 1)" stroke-width="1.5"></path><path d="M1838.18 -38.79L1988.28 -44.26" stroke="rgba(142, 132, 163, 1)" stroke-width="1.5"></path><path d="M1838.18 -38.79L1998.18 72.67" stroke="rgba(142, 132, 163, 1)" stroke-width="1.5"></path><path d="M1838.18 -38.79L1543.28 -96.28" stroke="rgba(142, 132, 163, 1)" stroke-width="1.5"></path><path d="M1871.25 61.9L1871.25 61.9" stroke="rgba(142, 132, 163, 1)" stroke-width="1.5"></path><path d="M1871.25 61.9L1998.18 72.67" stroke="rgba(142, 132, 163, 1)" stroke-width="1.5"></path><path d="M1988.28 -44.26L1988.28 -44.26" stroke="rgba(142, 132, 163, 1)" stroke-width="1.5"></path><path d="M1988.28 -44.26L1998.18 72.67" stroke="rgba(142, 132, 163, 1)" stroke-width="1.5"></path><path d="M1988.28 -44.26L1871.25 61.9" stroke="rgba(142, 132, 163, 1)" stroke-width="1.5"></path><path d="M1988.28 -44.26L1755.75 72.9" stroke="rgba(142, 132, 163, 1)" stroke-width="1.5"></path><path d="M1998.18 72.67L1998.18 72.67" stroke="rgba(142, 132, 163, 1)" stroke-width="1.5"></path><path d="M2062.3 229.76L2062.3 229.76" stroke="rgba(142, 132, 163, 1)" stroke-width="1.5"></path><path d="M2062.3 229.76L1998.18 72.67" stroke="rgba(142, 132, 163, 1)" stroke-width="1.5"></path><path d="M2062.3 229.76L1871.25 61.9" stroke="rgba(142, 132, 163, 1)" stroke-width="1.5"></path><path d="M2062.3 229.76L1988.28 -44.26" stroke="rgba(142, 132, 163, 1)" stroke-width="1.5"></path><path d="M2062.3 229.76L1747.87 244.16" stroke="rgba(142, 132, 163, 1)" stroke-width="1.5"></path><path d="M2062.3 229.76L1755.75 72.9" stroke="rgba(142, 132, 163, 1)" stroke-width="1.5"></path><path d="M2062.3 229.76L1838.18 -38.79" stroke="rgba(142, 132, 163, 1)" stroke-width="1.5"></path><circle r="5" cx="-39.32" cy="65.67" fill="rgba(142, 132, 163, 1)"></circle><circle r="5" cx="-86.22" cy="193.72" fill="rgba(142, 132, 163, 1)"></circle><circle r="5" cx="86.48" cy="187.64" fill="rgba(142, 132, 163, 1)"></circle><circle r="5" cx="229.66" cy="258.75" fill="rgba(142, 132, 163, 1)"></circle><circle r="5" cx="356.58" cy="215.45" fill="rgba(142, 132, 163, 1)"></circle><circle r="5" cx="544.83" cy="112.07" fill="rgba(142, 132, 163, 1)"></circle><circle r="5" cx="489.32" cy="240.8" fill="rgba(142, 132, 163, 1)"></circle><circle r="5" cx="678.5" cy="209.51" fill="rgba(142, 132, 163, 1)"></circle><circle r="5" cx="822.73" cy="59.32" fill="rgba(142, 132, 163, 1)"></circle><circle r="5" cx="979.21" cy="42.53" fill="rgba(142, 132, 163, 1)"></circle><circle r="5" cx="952.03" cy="214.14" fill="rgba(142, 132, 163, 1)"></circle><circle r="5" cx="1140.51" cy="40.58" fill="rgba(142, 132, 163, 1)"></circle><circle r="5" cx="1110.09" cy="254.79" fill="rgba(142, 132, 163, 1)"></circle><circle r="5" cx="1285.81" cy="-70.06" fill="rgba(142, 132, 163, 1)"></circle><circle r="5" cx="1261.33" cy="47.36" fill="rgba(142, 132, 163, 1)"></circle><circle r="5" cx="1278.85" cy="217.14" fill="rgba(142, 132, 163, 1)"></circle><circle r="5" cx="1398.48" cy="-64.3" fill="rgba(142, 132, 163, 1)"></circle><circle r="5" cx="1396.82" cy="54.36" fill="rgba(142, 132, 163, 1)"></circle><circle r="5" cx="1408.92" cy="230.71" fill="rgba(142, 132, 163, 1)"></circle><circle r="5" cx="1543.28" cy="-96.28" fill="rgba(142, 132, 163, 1)"></circle><circle r="5" cx="1558.31" cy="101.84" fill="rgba(142, 132, 163, 1)"></circle><circle r="5" cx="1562.05" cy="194.54" fill="rgba(142, 132, 163, 1)"></circle><circle r="5" cx="1755.75" cy="72.9" fill="rgba(142, 132, 163, 1)"></circle><circle r="5" cx="1747.87" cy="244.16" fill="rgba(142, 132, 163, 1)"></circle><circle r="5" cx="1838.18" cy="-38.79" fill="rgba(142, 132, 163, 1)"></circle><circle r="5" cx="1871.25" cy="61.9" fill="rgba(142, 132, 163, 1)"></circle><circle r="5" cx="1988.28" cy="-44.26" fill="rgba(142, 132, 163, 1)"></circle><circle r="5" cx="1998.18" cy="72.67" fill="rgba(142, 132, 163, 1)"></circle><circle r="5" cx="2062.3" cy="229.76" fill="rgba(142, 132, 163, 1)"></circle><path d="M-77.12 197.68L-77.12 197.68" stroke="hsl(259.20000000000005, 13.4%, 82.3%)" stroke-width="1.5"></path><path d="M-77.12 197.68L75.74 228.7" stroke="hsl(259.20000000000005, 13.4%, 82.3%)" stroke-width="1.5"></path><path d="M-77.12 197.68L248.64 190.13" stroke="hsl(259.20000000000005, 13.4%, 82.3%)" stroke-width="1.5"></path><path d="M-77.12 197.68L373.44 229.59" stroke="hsl(259.20000000000005, 13.4%, 82.3%)" stroke-width="1.5"></path><path d="M985.65 86.77L985.65 86.77" stroke="hsl(259.20000000000005, 13.4%, 82.3%)" stroke-width="1.5"></path><path d="M985.65 86.77L825.45 81.32" stroke="hsl(259.20000000000005, 13.4%, 82.3%)" stroke-width="1.5"></path><path d="M985.65 86.77L947.63 250.26" stroke="hsl(259.20000000000005, 13.4%, 82.3%)" stroke-width="1.5"></path><path d="M1422.6 38.45L1422.6 38.45" stroke="hsl(259.20000000000005, 13.4%, 82.3%)" stroke-width="1.5"></path><path d="M1422.6 38.45L1566.88 52.99" stroke="hsl(259.20000000000005, 13.4%, 82.3%)" stroke-width="1.5"></path><path d="M1422.6 38.45L1456.48 192.12" stroke="hsl(259.20000000000005, 13.4%, 82.3%)" stroke-width="1.5"></path><path d="M1422.6 38.45L1258.54 62.55" stroke="hsl(259.20000000000005, 13.4%, 82.3%)" stroke-width="1.5"></path><path d="M1422.6 38.45L1597.37 -40.19" stroke="hsl(259.20000000000005, 13.4%, 82.3%)" stroke-width="1.5"></path><path d="M1705.89 -47.68L1705.89 -47.68" stroke="hsl(259.20000000000005, 13.4%, 82.3%)" stroke-width="1.5"></path><path d="M1705.89 -47.68L1597.37 -40.19" stroke="hsl(259.20000000000005, 13.4%, 82.3%)" stroke-width="1.5"></path><path d="M1705.89 -47.68L1702.64 67.25" stroke="hsl(259.20000000000005, 13.4%, 82.3%)" stroke-width="1.5"></path><path d="M1705.89 -47.68L1566.88 52.99" stroke="hsl(259.20000000000005, 13.4%, 82.3%)" stroke-width="1.5"></path><path d="M1705.89 -47.68L1876.87 -66.15" stroke="hsl(259.20000000000005, 13.4%, 82.3%)" stroke-width="1.5"></path><path d="M1733.72 234.24L1733.72 234.24" stroke="hsl(259.20000000000005, 13.4%, 82.3%)" stroke-width="1.5"></path><path d="M1733.72 234.24L1583.16 252.36" stroke="hsl(259.20000000000005, 13.4%, 82.3%)" stroke-width="1.5"></path><path d="M1733.72 234.24L1702.64 67.25" stroke="hsl(259.20000000000005, 13.4%, 82.3%)" stroke-width="1.5"></path><path d="M1733.72 234.24L1904.83 256.04" stroke="hsl(259.20000000000005, 13.4%, 82.3%)" stroke-width="1.5"></path><path d="M1733.72 234.24L1872.84 85.72" stroke="hsl(259.20000000000005, 13.4%, 82.3%)" stroke-width="1.5"></path><path d="M1876.87 -66.15L1876.87 -66.15" stroke="hsl(259.20000000000005, 13.4%, 82.3%)" stroke-width="1.5"></path><path d="M1876.87 -66.15L1872.84 85.72" stroke="hsl(259.20000000000005, 13.4%, 82.3%)" stroke-width="1.5"></path><path d="M1876.87 -66.15L2045.04 -51.29" stroke="hsl(259.20000000000005, 13.4%, 82.3%)" stroke-width="1.5"></path><path d="M1992.14 73.76L1992.14 73.76" stroke="hsl(259.20000000000005, 13.4%, 82.3%)" stroke-width="1.5"></path><path d="M1992.14 73.76L1872.84 85.72" stroke="hsl(259.20000000000005, 13.4%, 82.3%)" stroke-width="1.5"></path><path d="M1992.14 73.76L2045.04 -51.29" stroke="hsl(259.20000000000005, 13.4%, 82.3%)" stroke-width="1.5"></path><path d="M1992.14 73.76L1876.87 -66.15" stroke="hsl(259.20000000000005, 13.4%, 82.3%)" stroke-width="1.5"></path><path d="M1992.14 73.76L2020.1 257.61" stroke="hsl(259.20000000000005, 13.4%, 82.3%)" stroke-width="1.5"></path><path d="M1992.14 73.76L1904.83 256.04" stroke="hsl(259.20000000000005, 13.4%, 82.3%)" stroke-width="1.5"></path><path d="M1992.14 73.76L1702.64 67.25" stroke="hsl(259.20000000000005, 13.4%, 82.3%)" stroke-width="1.5"></path><path d="M2020.1 257.61L2020.1 257.61" stroke="hsl(259.20000000000005, 13.4%, 82.3%)" stroke-width="1.5"></path><path d="M2020.1 257.61L1904.83 256.04" stroke="hsl(259.20000000000005, 13.4%, 82.3%)" stroke-width="1.5"></path><path d="M2020.1 257.61L1872.84 85.72" stroke="hsl(259.20000000000005, 13.4%, 82.3%)" stroke-width="1.5"></path><path d="M2020.1 257.61L1733.72 234.24" stroke="hsl(259.20000000000005, 13.4%, 82.3%)" stroke-width="1.5"></path><path d="M2020.1 257.61L2045.04 -51.29" stroke="hsl(259.20000000000005, 13.4%, 82.3%)" stroke-width="1.5"></path><path d="M75.74 228.7L75.74 228.7" stroke="hsl(259.20000000000005, 13.4%, 82.3%)" stroke-width="1.5"></path><path d="M75.74 228.7L248.64 190.13" stroke="hsl(259.20000000000005, 13.4%, 82.3%)" stroke-width="1.5"></path><path d="M75.74 228.7L373.44 229.59" stroke="hsl(259.20000000000005, 13.4%, 82.3%)" stroke-width="1.5"></path><path d="M248.64 190.13L248.64 190.13" stroke="hsl(259.20000000000005, 13.4%, 82.3%)" stroke-width="1.5"></path><path d="M248.64 190.13L373.44 229.59" stroke="hsl(259.20000000000005, 13.4%, 82.3%)" stroke-width="1.5"></path><path d="M248.64 190.13L490.32 91.73" stroke="hsl(259.20000000000005, 13.4%, 82.3%)" stroke-width="1.5"></path><path d="M373.44 229.59L373.44 229.59" stroke="hsl(259.20000000000005, 13.4%, 82.3%)" stroke-width="1.5"></path><path d="M373.44 229.59L515.86 220.23" stroke="hsl(259.20000000000005, 13.4%, 82.3%)" stroke-width="1.5"></path><path d="M490.32 91.73L490.32 91.73" stroke="hsl(259.20000000000005, 13.4%, 82.3%)" stroke-width="1.5"></path><path d="M490.32 91.73L515.86 220.23" stroke="hsl(259.20000000000005, 13.4%, 82.3%)" stroke-width="1.5"></path><path d="M490.32 91.73L373.44 229.59" stroke="hsl(259.20000000000005, 13.4%, 82.3%)" stroke-width="1.5"></path><path d="M490.32 91.73L673.62 94.46" stroke="hsl(259.20000000000005, 13.4%, 82.3%)" stroke-width="1.5"></path><path d="M490.32 91.73L644.17 192.41" stroke="hsl(259.20000000000005, 13.4%, 82.3%)" stroke-width="1.5"></path><path d="M490.32 91.73L825.45 81.32" stroke="hsl(259.20000000000005, 13.4%, 82.3%)" stroke-width="1.5"></path><path d="M515.86 220.23L515.86 220.23" stroke="hsl(259.20000000000005, 13.4%, 82.3%)" stroke-width="1.5"></path><path d="M515.86 220.23L644.17 192.41" stroke="hsl(259.20000000000005, 13.4%, 82.3%)" stroke-width="1.5"></path><path d="M515.86 220.23L673.62 94.46" stroke="hsl(259.20000000000005, 13.4%, 82.3%)" stroke-width="1.5"></path><path d="M673.62 94.46L673.62 94.46" stroke="hsl(259.20000000000005, 13.4%, 82.3%)" stroke-width="1.5"></path><path d="M673.62 94.46L644.17 192.41" stroke="hsl(259.20000000000005, 13.4%, 82.3%)" stroke-width="1.5"></path><path d="M673.62 94.46L825.45 81.32" stroke="hsl(259.20000000000005, 13.4%, 82.3%)" stroke-width="1.5"></path><path d="M673.62 94.46L985.65 86.77" stroke="hsl(259.20000000000005, 13.4%, 82.3%)" stroke-width="1.5"></path><path d="M673.62 94.46L947.63 250.26" stroke="hsl(259.20000000000005, 13.4%, 82.3%)" stroke-width="1.5"></path><path d="M644.17 192.41L644.17 192.41" stroke="hsl(259.20000000000005, 13.4%, 82.3%)" stroke-width="1.5"></path><path d="M825.45 81.32L825.45 81.32" stroke="hsl(259.20000000000005, 13.4%, 82.3%)" stroke-width="1.5"></path><path d="M947.63 250.26L947.63 250.26" stroke="hsl(259.20000000000005, 13.4%, 82.3%)" stroke-width="1.5"></path><path d="M947.63 250.26L825.45 81.32" stroke="hsl(259.20000000000005, 13.4%, 82.3%)" stroke-width="1.5"></path><path d="M947.63 250.26L1151.99 59.02" stroke="hsl(259.20000000000005, 13.4%, 82.3%)" stroke-width="1.5"></path><path d="M1151.99 59.02L1151.99 59.02" stroke="hsl(259.20000000000005, 13.4%, 82.3%)" stroke-width="1.5"></path><path d="M1151.99 59.02L1258.54 62.55" stroke="hsl(259.20000000000005, 13.4%, 82.3%)" stroke-width="1.5"></path><path d="M1151.99 59.02L985.65 86.77" stroke="hsl(259.20000000000005, 13.4%, 82.3%)" stroke-width="1.5"></path><path d="M1151.99 59.02L1293.49 195.81" stroke="hsl(259.20000000000005, 13.4%, 82.3%)" stroke-width="1.5"></path><path d="M1258.54 62.55L1258.54 62.55" stroke="hsl(259.20000000000005, 13.4%, 82.3%)" stroke-width="1.5"></path><path d="M1258.54 62.55L1293.49 195.81" stroke="hsl(259.20000000000005, 13.4%, 82.3%)" stroke-width="1.5"></path><path d="M1258.54 62.55L1456.48 192.12" stroke="hsl(259.20000000000005, 13.4%, 82.3%)" stroke-width="1.5"></path><path d="M1293.49 195.81L1293.49 195.81" stroke="hsl(259.20000000000005, 13.4%, 82.3%)" stroke-width="1.5"></path><path d="M1293.49 195.81L1456.48 192.12" stroke="hsl(259.20000000000005, 13.4%, 82.3%)" stroke-width="1.5"></path><path d="M1293.49 195.81L1422.6 38.45" stroke="hsl(259.20000000000005, 13.4%, 82.3%)" stroke-width="1.5"></path><path d="M1293.49 195.81L1583.16 252.36" stroke="hsl(259.20000000000005, 13.4%, 82.3%)" stroke-width="1.5"></path><path d="M1293.49 195.81L1566.88 52.99" stroke="hsl(259.20000000000005, 13.4%, 82.3%)" stroke-width="1.5"></path><path d="M1456.48 192.12L1456.48 192.12" stroke="hsl(259.20000000000005, 13.4%, 82.3%)" stroke-width="1.5"></path><path d="M1456.48 192.12L1583.16 252.36" stroke="hsl(259.20000000000005, 13.4%, 82.3%)" stroke-width="1.5"></path><path d="M1456.48 192.12L1566.88 52.99" stroke="hsl(259.20000000000005, 13.4%, 82.3%)" stroke-width="1.5"></path><path d="M1597.37 -40.19L1597.37 -40.19" stroke="hsl(259.20000000000005, 13.4%, 82.3%)" stroke-width="1.5"></path><path d="M1597.37 -40.19L1566.88 52.99" stroke="hsl(259.20000000000005, 13.4%, 82.3%)" stroke-width="1.5"></path><path d="M1566.88 52.99L1566.88 52.99" stroke="hsl(259.20000000000005, 13.4%, 82.3%)" stroke-width="1.5"></path><path d="M1566.88 52.99L1702.64 67.25" stroke="hsl(259.20000000000005, 13.4%, 82.3%)" stroke-width="1.5"></path><path d="M1583.16 252.36L1583.16 252.36" stroke="hsl(259.20000000000005, 13.4%, 82.3%)" stroke-width="1.5"></path><path d="M1583.16 252.36L1566.88 52.99" stroke="hsl(259.20000000000005, 13.4%, 82.3%)" stroke-width="1.5"></path><path d="M1583.16 252.36L1702.64 67.25" stroke="hsl(259.20000000000005, 13.4%, 82.3%)" stroke-width="1.5"></path><path d="M1583.16 252.36L1422.6 38.45" stroke="hsl(259.20000000000005, 13.4%, 82.3%)" stroke-width="1.5"></path><path d="M1702.64 67.25L1702.64 67.25" stroke="hsl(259.20000000000005, 13.4%, 82.3%)" stroke-width="1.5"></path><path d="M1702.64 67.25L1597.37 -40.19" stroke="hsl(259.20000000000005, 13.4%, 82.3%)" stroke-width="1.5"></path><path d="M1872.84 85.72L1872.84 85.72" stroke="hsl(259.20000000000005, 13.4%, 82.3%)" stroke-width="1.5"></path><path d="M1872.84 85.72L1702.64 67.25" stroke="hsl(259.20000000000005, 13.4%, 82.3%)" stroke-width="1.5"></path><path d="M1872.84 85.72L1904.83 256.04" stroke="hsl(259.20000000000005, 13.4%, 82.3%)" stroke-width="1.5"></path><path d="M1904.83 256.04L1904.83 256.04" stroke="hsl(259.20000000000005, 13.4%, 82.3%)" stroke-width="1.5"></path><path d="M2045.04 -51.29L2045.04 -51.29" stroke="hsl(259.20000000000005, 13.4%, 82.3%)" stroke-width="1.5"></path><path d="M2045.04 -51.29L1872.84 85.72" stroke="hsl(259.20000000000005, 13.4%, 82.3%)" stroke-width="1.5"></path><circle r="25" cx="-77.12" cy="197.68" fill="url(&quot;#SvgjsRadialGradient1023&quot;)"></circle><circle r="25" cx="985.65" cy="86.77" fill="url(&quot;#SvgjsRadialGradient1023&quot;)"></circle><circle r="25" cx="1422.6" cy="38.45" fill="url(&quot;#SvgjsRadialGradient1023&quot;)"></circle><circle r="25" cx="1705.89" cy="-47.68" fill="url(&quot;#SvgjsRadialGradient1023&quot;)"></circle><circle r="25" cx="1733.72" cy="234.24" fill="url(&quot;#SvgjsRadialGradient1023&quot;)"></circle><circle r="25" cx="1876.87" cy="-66.15" fill="url(&quot;#SvgjsRadialGradient1023&quot;)"></circle><circle r="25" cx="1992.14" cy="73.76" fill="url(&quot;#SvgjsRadialGradient1023&quot;)"></circle><circle r="25" cx="2020.1" cy="257.61" fill="url(&quot;#SvgjsRadialGradient1023&quot;)"></circle><circle r="5" cx="75.74" cy="228.7" fill="#cecad7"></circle><circle r="5" cx="248.64" cy="190.13" fill="#cecad7"></circle><circle r="5" cx="373.44" cy="229.59" fill="#cecad7"></circle><circle r="5" cx="490.32" cy="91.73" fill="#cecad7"></circle><circle r="5" cx="515.86" cy="220.23" fill="#cecad7"></circle><circle r="5" cx="673.62" cy="94.46" fill="#cecad7"></circle><circle r="5" cx="644.17" cy="192.41" fill="#cecad7"></circle><circle r="5" cx="825.45" cy="81.32" fill="#cecad7"></circle><circle r="5" cx="947.63" cy="250.26" fill="#cecad7"></circle><circle r="5" cx="1151.99" cy="59.02" fill="#cecad7"></circle><circle r="5" cx="1258.54" cy="62.55" fill="#cecad7"></circle><circle r="5" cx="1293.49" cy="195.81" fill="#cecad7"></circle><circle r="5" cx="1456.48" cy="192.12" fill="#cecad7"></circle><circle r="5" cx="1597.37" cy="-40.19" fill="#cecad7"></circle><circle r="5" cx="1566.88" cy="52.99" fill="#cecad7"></circle><circle r="5" cx="1583.16" cy="252.36" fill="#cecad7"></circle><circle r="5" cx="1702.64" cy="67.25" fill="#cecad7"></circle><circle r="5" cx="1872.84" cy="85.72" fill="#cecad7"></circle><circle r="5" cx="1904.83" cy="256.04" fill="#cecad7"></circle><circle r="5" cx="2045.04" cy="-51.29" fill="#cecad7"></circle></g><defs><mask id="SvgjsMask1022"><rect width="1920" height="100" fill="#ffffff"></rect></mask><radialGradient id="SvgjsRadialGradient1023"><stop stop-color="#ffffff" offset="0.1"></stop><stop stop-color="rgba(157, 149, 174, 1)" offset="0.2"></stop><stop stop-color="rgba(157, 149, 174, 0)" offset="1"></stop></radialGradient></defs></svg>